<svg width="536" height="102" viewBox="0 0 536 102" fill="none" xmlns="http://www.w3.org/2000/svg">
<path d="M50.8861 0L62.3107 35.1614H99.2816L69.3715 56.8924L80.7962 92.0538L50.8861 70.3228L20.976 92.0538L32.4006 56.8924L2.49054 35.1614H39.4614L50.8861 0Z" fill="#C9F40E"/>
<path d="M159.443 0L170.868 35.1614H207.839L177.928 56.8924L189.353 92.0538L159.443 70.3228L129.533 92.0538L140.958 56.8924L111.047 35.1614H148.018L159.443 0Z" fill="#C9F40E"/>
<path d="M268 0L279.425 35.1614H316.396L286.486 56.8924L297.91 92.0538L268 70.3228L238.09 92.0538L249.515 56.8924L219.605 35.1614H256.575L268 0Z" fill="#C9F40E"/>
<path d="M376.557 0L387.982 35.1614H424.953L395.042 56.8924L406.467 92.0538L376.557 70.3228L346.647 92.0538L358.072 56.8924L328.161 35.1614H365.132L376.557 0Z" fill="#C9F40E"/>
<path d="M496.063 35.3164L496.175 35.6611H531.97L503.305 56.4883L503.012 56.7012L503.124 57.0469L514.073 90.7441L485.407 69.918L485.114 69.7051L484.82 69.918L456.154 90.7441L467.104 57.0469L467.216 56.7012L466.922 56.4883L438.257 35.6611H474.053L474.164 35.3164L485.114 1.61719L496.063 35.3164Z" stroke="#C9F40E"/>
</svg>
