<svg width="542" height="103" viewBox="0 0 542 103" fill="none" xmlns="http://www.w3.org/2000/svg">
<path d="M51.6005 0L63.1856 35.6551H100.676L70.3455 57.6911L81.9305 93.3462L51.6005 71.3102L21.2705 93.3462L32.8555 57.6911L2.52551 35.6551H40.0155L51.6005 0Z" fill="#C9F40E"/>
<path d="M161.682 0L173.267 35.6551H210.757L180.427 57.6911L192.012 93.3462L161.682 71.3102L131.352 93.3462L142.937 57.6911L112.607 35.6551H150.097L161.682 0Z" fill="#C9F40E"/>
<path d="M271.763 0L283.348 35.6551H320.838L290.508 57.6911L302.093 93.3462L271.763 71.3102L241.433 93.3462L253.018 57.6911L222.688 35.6551H260.178L271.763 0Z" fill="#C9F40E"/>
<path d="M381.844 0L393.429 35.6551H430.919L400.589 57.6911L412.174 93.3462L381.844 71.3102L351.514 93.3462L363.099 57.6911L332.769 35.6551H370.259L381.844 0Z" fill="#C9F40E"/>
<path d="M503.109 35.8096L503.222 36.1553H539.536L510.451 57.2871L510.157 57.5L510.27 57.8457L521.378 92.0361L492.5 71.0547V3.15625L503.109 35.8096Z" stroke="#C9F40E"/>
<path d="M492.075 0V71.3102L461.745 93.3462L473.33 57.6911L443 35.6551H480.49L492.075 0Z" fill="#C9F40E"/>
</svg>
